<mxfile host="www.draw.io" modified="2019-11-23T08:10:05.783Z" agent="Mozilla/5.0 (Windows NT 10.0; Win64; x64; rv:70.0) Gecko/20100101 Firefox/70.0" etag="4IccRj81TIBrBPzZ-5LV" version="12.2.9" type="github" pages="1">
  <diagram id="N7ij3V_wZRpmh0N41dI8" name="第 1 页">
    <mxGraphModel dx="1038" dy="615" grid="1" gridSize="10" guides="1" tooltips="1" connect="1" arrows="1" fold="1" page="1" pageScale="1" pageWidth="1169" pageHeight="827" math="0" shadow="0">
      <root>
        <mxCell id="0"/>
        <mxCell id="1" parent="0"/>
        <mxCell id="7xsOtTeyBtVqb5MYG1Rs-2" value="" style="whiteSpace=wrap;html=1;aspect=fixed;" vertex="1" parent="1">
          <mxGeometry x="330" y="320" width="320" height="320" as="geometry"/>
        </mxCell>
        <mxCell id="7xsOtTeyBtVqb5MYG1Rs-3" value="" style="rounded=0;whiteSpace=wrap;html=1;" vertex="1" parent="1">
          <mxGeometry x="330" y="360" width="320" height="280" as="geometry"/>
        </mxCell>
        <mxCell id="7xsOtTeyBtVqb5MYG1Rs-4" value="max = a[i]" style="text;html=1;align=center;verticalAlign=middle;resizable=0;points=[];;autosize=1;" vertex="1" parent="1">
          <mxGeometry x="450" y="330" width="70" height="20" as="geometry"/>
        </mxCell>
        <mxCell id="7xsOtTeyBtVqb5MYG1Rs-5" value="" style="rounded=0;whiteSpace=wrap;html=1;" vertex="1" parent="1">
          <mxGeometry x="370" y="400" width="280" height="240" as="geometry"/>
        </mxCell>
        <mxCell id="7xsOtTeyBtVqb5MYG1Rs-6" value="for i =&amp;nbsp; 2 to n" style="text;html=1;align=center;verticalAlign=middle;resizable=0;points=[];;autosize=1;" vertex="1" parent="1">
          <mxGeometry x="360" y="370" width="80" height="20" as="geometry"/>
        </mxCell>
        <mxCell id="7xsOtTeyBtVqb5MYG1Rs-10" style="edgeStyle=none;rounded=0;orthogonalLoop=1;jettySize=auto;html=1;endArrow=none;endFill=0;entryX=1.004;entryY=0.025;entryDx=0;entryDy=0;entryPerimeter=0;" edge="1" parent="1" target="7xsOtTeyBtVqb5MYG1Rs-5">
          <mxGeometry relative="1" as="geometry">
            <mxPoint x="520" y="460" as="sourcePoint"/>
          </mxGeometry>
        </mxCell>
        <mxCell id="7xsOtTeyBtVqb5MYG1Rs-7" value="" style="rounded=0;whiteSpace=wrap;html=1;" vertex="1" parent="1">
          <mxGeometry x="370" y="460" width="280" height="180" as="geometry"/>
        </mxCell>
        <mxCell id="7xsOtTeyBtVqb5MYG1Rs-9" style="rounded=0;orthogonalLoop=1;jettySize=auto;html=1;exitX=1.007;exitY=0.006;exitDx=0;exitDy=0;entryX=0.004;entryY=0;entryDx=0;entryDy=0;entryPerimeter=0;endArrow=none;endFill=0;exitPerimeter=0;" edge="1" parent="1" source="7xsOtTeyBtVqb5MYG1Rs-8" target="7xsOtTeyBtVqb5MYG1Rs-5">
          <mxGeometry relative="1" as="geometry"/>
        </mxCell>
        <mxCell id="7xsOtTeyBtVqb5MYG1Rs-8" value="" style="rounded=0;whiteSpace=wrap;html=1;" vertex="1" parent="1">
          <mxGeometry x="370" y="460" width="150" height="180" as="geometry"/>
        </mxCell>
        <mxCell id="7xsOtTeyBtVqb5MYG1Rs-11" value="T" style="text;html=1;align=center;verticalAlign=middle;resizable=0;points=[];;autosize=1;" vertex="1" parent="1">
          <mxGeometry x="390" y="430" width="20" height="20" as="geometry"/>
        </mxCell>
        <mxCell id="7xsOtTeyBtVqb5MYG1Rs-12" value="F" style="text;html=1;align=center;verticalAlign=middle;resizable=0;points=[];;autosize=1;" vertex="1" parent="1">
          <mxGeometry x="610" y="440" width="20" height="20" as="geometry"/>
        </mxCell>
        <mxCell id="7xsOtTeyBtVqb5MYG1Rs-13" value="max&amp;lt;a[i]" style="text;html=1;align=center;verticalAlign=middle;resizable=0;points=[];;autosize=1;" vertex="1" parent="1">
          <mxGeometry x="485" y="420" width="60" height="20" as="geometry"/>
        </mxCell>
        <mxCell id="7xsOtTeyBtVqb5MYG1Rs-14" value="max = a[i]" style="text;html=1;align=center;verticalAlign=middle;resizable=0;points=[];;autosize=1;" vertex="1" parent="1">
          <mxGeometry x="405" y="530" width="70" height="20" as="geometry"/>
        </mxCell>
      </root>
    </mxGraphModel>
  </diagram>
</mxfile>
